<svg height="512" viewBox="0 0 512 512" width="512" xmlns="http://www.w3.org/2000/svg"><g><g><path d="m496 60v28h-480v-28a19.994 19.994 0 0 1 20-20h440a19.994 19.994 0 0 1 20 20z" fill="#d80027"/><path d="m496 88v364a19.994 19.994 0 0 1 -20 20h-440a19.994 19.994 0 0 1 -20-20v-364z" fill="#d8d7da"/><path d="m88 144h256v64h-256z" fill="#ffda44"/><path d="m384 176h32v200h-32z" fill="#d80027"/><path d="m416 136v40h-32v-40a16 16 0 1 1 32 0z" fill="#ffeb99"/><path d="m384 376h32v16l-16 32-16-32z" fill="#ffeb99"/><path d="m384 152h32v24h-32z" fill="#ffda44"/></g><g><path d="m476 32h-440a28.031 28.031 0 0 0 -28 28v392a28.031 28.031 0 0 0 28 28h440a28.031 28.031 0 0 0 28-28v-392a28.031 28.031 0 0 0 -28-28zm12 420a12.01 12.01 0 0 1 -12 12h-440a12.01 12.01 0 0 1 -12-12v-356h464zm0-372h-464v-20a12.01 12.01 0 0 1 12-12h440a12.01 12.01 0 0 1 12 12z"/><path d="m48 72h8a8 8 0 0 0 0-16h-8a8 8 0 0 0 0 16z"/><path d="m80 72h8a8 8 0 0 0 0-16h-8a8 8 0 0 0 0 16z"/><path d="m112 72h8a8 8 0 0 0 0-16h-8a8 8 0 0 0 0 16z"/><path d="m344 136h-256a8 8 0 0 0 -8 8v64a8 8 0 0 0 8 8h256a8 8 0 0 0 8-8v-64a8 8 0 0 0 -8-8zm-8 64h-240v-48h240z"/><path d="m200 232h-112a8 8 0 0 0 0 16h112a8 8 0 0 0 0-16z"/><path d="m200 264h-112a8 8 0 0 0 0 16h112a8 8 0 0 0 0-16z"/><path d="m200 296h-112a8 8 0 0 0 0 16h112a8 8 0 0 0 0-16z"/><path d="m88 344h48a8 8 0 0 0 0-16h-48a8 8 0 0 0 0 16z"/><path d="m168 344a8 8 0 0 0 0-16h-8a8 8 0 0 0 0 16z"/><path d="m344 232h-112a8 8 0 0 0 0 16h112a8 8 0 0 0 0-16z"/><path d="m344 264h-112a8 8 0 0 0 0 16h112a8 8 0 0 0 0-16z"/><path d="m344 296h-112a8 8 0 0 0 0 16h112a8 8 0 0 0 0-16z"/><path d="m232 344h48a8 8 0 0 0 0-16h-48a8 8 0 0 0 0 16z"/><path d="m312 344a8 8 0 0 0 0-16h-8a8 8 0 0 0 0 16z"/><path d="m200 360h-112a8 8 0 0 0 0 16h112a8 8 0 0 0 0-16z"/><path d="m136 392h-48a8 8 0 0 0 0 16h48a8 8 0 0 0 0-16z"/><path d="m168 392h-8a8 8 0 0 0 0 16h8a8 8 0 0 0 0-16z"/><path d="m344 360h-112a8 8 0 0 0 0 16h112a8 8 0 0 0 0-16z"/><path d="m280 392h-48a8 8 0 0 0 0 16h48a8 8 0 0 0 0-16z"/><path d="m312 392h-8a8 8 0 0 0 0 16h8a8 8 0 0 0 0-16z"/><path d="m400 112a24.032 24.032 0 0 0 -24 24v256a8.081 8.081 0 0 0 .84 3.58l16 32a8.009 8.009 0 0 0 14.32 0l16-32a8.081 8.081 0 0 0 .84-3.58v-256a24.032 24.032 0 0 0 -24-24zm8 278.11-8 16-8-16v-6.11h16zm0-22.11h-16v-184h16zm0-200h-16v-8h16zm0-24h-16v-8a8 8 0 0 1 16 0z"/></g></g></svg>