<svg id="Capa_1" enable-background="new 0 0 511.993 511.993" height="512" viewBox="0 0 511.993 511.993" width="512" xmlns="http://www.w3.org/2000/svg"><g><g><path d="m426.574 455.72-381.362-1.763c-5.523 0-10-4.477-10-10l.681-51.003c0-5.523 4.477-10 10-10l6.026-1.751h40.337l160.147-10.933 181.111 10.933c5.523 0 10 4.477 10 10v47.754l-6.94 6.763c0 5.523-4.477 10-10 10z" fill="#94d4a2"/><g fill="#7fcb8f"><path d="m443.51 438.957v10c0 5.523-4.477 10-10 10h-45.684l-17.426-6.768-17.426 6.768h-225.866l-17.426-11.534-17.426 11.534h-50.336c-5.52 0-10-4.47-10-10v-57.75c0-5.53 4.48-10 10-10h10v51.75c0 3.314 2.686 6 6 6z"/><path d="m127.108 458.961-17.423-8.135-17.428 8.135v-77.758h34.851z"/><path d="m387.826 458.961-17.425-6.773-17.426 6.773v-77.758h34.851z"/></g><path d="m92.26 438.957h34.85v20h-34.85z" fill="#71bf7e"/><path d="m352.97 438.957h34.86v20h-34.86z" fill="#71bf7e"/><path d="m463.636 376.207h-379.466c-5.523 0-10-4.477-10-10l-.149-87.635c0-5.523-.261-10.583 5.262-10.583l185.376-17.672 126.008 20.245 24.045-2.572h56.164c5.523 0 10 4.477 10 10v83.219l-7.24 5c0 5.52-4.477 9.998-10 9.998z" fill="#b78c7a"/><path d="m480.88 361.207v10c0 5.52-4.48 10-10 10h-56.168l-20.2-10-20.2 10h-201.011l-21.663-5.614-18.736 5.614h-53.622c-5.52 0-10-4.48-10-10v-93.22c0-5.52 4.48-10 10-10h10v87.22c0 3.31 2.69 6 6 6z" fill="#ab7b64"/><path d="m173.301 381.203-20.401-9.996-19.998 9.996v-113.215h40.399z" fill="#ab7b64"/><path d="m414.712 381.203-20.2-9.996-20.199 9.996v-113.215h40.399z" fill="#ab7b64"/><path d="m132.9 361.207h40.4v20h-40.4z" fill="#9a6a53"/><path d="m374.31 361.207h40.4v20h-40.4z" fill="#9a6a53"/><path d="m488.041 177.191c-1.223.984-5.733-1.258-12.106-1.258-6.374 0-10.483 2.242-11.706 1.258-5.197 12.81-10.393 25.62-15.59 38.43-3.097 7.634 2.467 15.999 10.64 15.999h33.711c8.174 0 13.737-8.366 10.64-15.999z" fill="#ffe07d"/><path d="m492.99 231.617h-33.71c-8.17 0-13.74-8.36-10.64-16 5.2-12.81 10.39-25.62 15.59-38.43 1.22.99 5.325-1.254 11.705-1.254 1.48 0 3.055 5.294 4.305 5.004l-11.475 27.771c-1.36 3.292 1.059 6.909 4.621 6.909h30.244c3.1 7.64-2.47 16-10.64 16z" fill="#ffd064"/><path d="m400.45 196.917-137.824 22.59-137.826-22.59 8.1-44.57 115.249-18.116 144.201 18.116z" fill="#ffe07d"/><path d="m392.35 152.347h-259.45l11.62-64.49h236.2l2.09 11.54z" fill="#5f6c75"/><path d="m152.9 152.347-8.1 44.57h-20l8.1-44.57 10.823-12.244z" fill="#ffd064"/><path d="m384.33 107.847-1.52-8.45-2.09-11.54-126.699-11.073-109.501 11.073-11.62 64.49h20l7.277-40.387c.429-2.381 2.501-4.113 4.921-4.113z" fill="#4e5a61"/><path d="m483.513 53.033h-441.774c-2.761 0-5 2.239-5 5v24.809c0 2.761 2.239 5 5 5h441.774c2.761 0 5-2.239 5-5v-24.809c0-2.762-2.239-5-5-5z" fill="#5f6c75"/><path d="m63.13 87.847h-21.39c-2.76 0-5-2.24-5-5v-24.81c0-2.77 2.24-5 5-5h21.38c-.86.99-1.38 2.32-1.38 3.79v27.23c0 1.48.53 2.81 1.39 3.79z" fill="#4e5a61"/><path d="m495.24 162.111c0-10.65-8.553-19.284-19.104-19.284-1.268 0-2.508.125-3.707.363-8.777 1.742-12.024 9.737-12.024 19.107 0 10.65 5.18 14.657 15.731 14.657 9.218 0 16.912-2.149 18.708-10.917.259-1.267.396-2.581.396-3.926z" fill="#ffe07d"/><path d="m494.84 166.037c-1.79 8.77-9.48 15.36-18.7 15.36-10.56 0-19.11-8.64-19.11-19.29 0-9.37 6.62-17.17 15.4-18.91-.26 1.26-.4 2.57-.4 3.91 0 10.65 8.55 19.29 19.11 19.29 1.27 0 2.51-.12 3.7-.36z" fill="#ffd064"/><path d="m400.449 262.987-372.598-1.99c-5.523 0-10-4.477-10-10l-6.638-41.533c0-5.523 4.477-10 10-10l6.287-2.545h31.469l22.712 7.545 17.687-7.545h224.231l21.571 7.545 18.828-7.545h41.257c5.523 0 10 4.477 10 10v41.068l-4.806 5c0 5.522-4.477 10-10 10z" fill="#f5fcff"/><path d="m415.26 247.987v10c0 5.523-4.477 10-10 10h-41.262l-20.198-10-20.201 10h-224.231l-20.2-5-20.2 5h-41.468c-5.523 0-10-4.477-10-10v-51.07c0-5.523 4.477-10 10-10h10v45.07c0 3.314 2.686 6 6 6z" fill="#e6f7fe"/><path d="m363.998 267.988-20.198-7.8-20.201 7.8v-71.069h40.399z" fill="#e6f7fe"/><path d="m99.368 267.988-21.942-7.459-18.457 7.459v-71.069h40.399z" fill="#e6f7fe"/><path d="m323.6 247.987h40.4v20h-40.4z" fill="#d3effd"/><path d="m58.97 247.987h40.4v20h-40.4z" fill="#d3effd"/></g><g><g><path d="m510.581 212.801-13.748-33.889c3.69-4.599 5.906-10.443 5.906-16.802 0-12.147-8.076-22.424-19.104-25.693v-41.081c6.835-.067 12.377-5.643 12.377-12.494v-24.809c0-6.893-5.607-12.5-12.5-12.5h-51.449c-4.143 0-7.5 3.358-7.5 7.5s3.357 7.5 7.5 7.5h48.949v19.809h-336.5-100.273v-19.809h352.506c4.143 0 7.5-3.358 7.5-7.5s-3.357-7.5-7.5-7.5h-355.006c-6.893 0-12.5 5.607-12.5 12.5v24.809c0 6.893 5.607 12.5 12.5 12.5h93.795l-17 94.077h-101.034c-9.649 0-17.5 7.851-17.5 17.5v51.069c0 9.649 7.851 17.5 17.5 17.5h44.283v98.215h-19.861c-9.649 0-17.5 7.851-17.5 17.5v57.757c0 9.649 7.851 17.5 17.5 17.5h391.593c9.649 0 17.5-7.851 17.5-17.5v-60.257h19.861c9.649 0 17.5-7.851 17.5-17.5v-93.215c0-9.649-7.851-17.5-17.5-17.5h-48.121v-53.569c0-9.152-7.066-16.673-16.027-17.425l-17.025-94.151h78.934v41.076c-11.028 3.269-19.104 13.546-19.104 25.693 0 6.358 2.216 12.203 5.906 16.801l-13.747 33.889c-2.405 5.926-1.71 12.628 1.859 17.928 3.538 5.254 9.418 8.391 15.729 8.391h33.712c6.312 0 12.191-3.137 15.729-8.391 3.569-5.301 4.264-12.003 1.86-17.929zm-154.083-8.383v56.069h-25.399v-56.069zm43.909 0c.011 0 .022.001.033.001s.022-.001.033-.001h4.782c1.379 0 2.5 1.122 2.5 2.5v51.069c0 1.378-1.121 2.5-2.5 2.5h-33.757v-56.069zm-18.594 169.285v-14.366c0-4.142-3.357-7.5-7.5-7.5s-7.5 3.358-7.5 7.5v14.366h-127.94c-4.143 0-7.5 3.358-7.5 7.5s3.357 7.5 7.5 7.5h106.603v62.757h-210.868v-62.757h69.285c4.143 0 7.5-3.358 7.5-7.5s-3.357-7.5-7.5-7.5h-23.092v-98.215h186.011v48.785c0 4.142 3.357 7.5 7.5 7.5s7.5-3.358 7.5-7.5v-48.785h25.399v98.215zm-1.487 15v62.757h-19.852v-62.757zm-260.718 0v62.757h-19.851v-62.757zm46.194-113.215v98.215h-25.399v-98.215zm150.297-15h-209.23v-56.069h209.23zm-236.816 0h-12.814v-56.069h25.399v56.069zm-64.283-2.5v-51.069c0-1.378 1.121-2.5 2.5-2.5h33.969v56.069h-33.969c-1.379 0-2.5-1.122-2.5-2.5zm110.402 17.5v98.215h-46.119c-1.379 0-2.5-1.122-2.5-2.5v-93.215c0-1.378 1.121-2.5 2.5-2.5zm-85.98 173.472v-57.757c0-1.378 1.121-2.5 2.5-2.5 4.14 0 40.494-.001 42.835 0v62.757h-42.835c-1.379 0-2.5-1.121-2.5-2.5zm396.593-57.757v57.757c0 1.378-1.121 2.5-2.5 2.5h-38.188v-62.757h38.188c1.379 0 2.5 1.122 2.5 2.5zm37.361-113.215v93.215c0 1.378-1.121 2.5-2.5 2.5h-48.664v-98.215h48.664c1.379 0 2.5 1.121 2.5 2.5zm-89.964-133.138h-172.157c-4.143 0-7.5 3.358-7.5 7.5s3.357 7.5 7.5 7.5h174.87l5.347 29.568h-257.693l5.343-29.568h37.155c4.143 0 7.5-3.358 7.5-7.5s-3.357-7.5-7.5-7.5h-34.444l8.946-49.508h223.681zm92.724 5.477c6.398 0 11.604 5.286 11.604 11.784s-5.205 11.784-11.604 11.784-11.604-5.286-11.604-11.784c-.001-6.498 5.205-11.784 11.604-11.784zm20.143 72.024c-.445.661-1.464 1.77-3.288 1.77h-33.712c-1.824 0-2.843-1.108-3.288-1.77-.373-.554-1.159-2.044-.401-3.911l12.495-30.802c2.541.814 5.245 1.257 8.051 1.257 2.805 0 5.509-.443 8.05-1.257l12.496 30.802c.756 1.866-.03 3.356-.403 3.911z"/><path d="m321.548 317.096h-92.937c-4.143 0-7.5 3.358-7.5 7.5s3.357 7.5 7.5 7.5h92.937c4.143 0 7.5-3.358 7.5-7.5s-3.358-7.5-7.5-7.5z"/><path d="m178.152 420.082c0 4.142 3.357 7.5 7.5 7.5h108.778c4.143 0 7.5-3.358 7.5-7.5s-3.357-7.5-7.5-7.5h-108.778c-4.142 0-7.5 3.357-7.5 7.5z"/></g></g></g></svg>