<svg id="Capa_1" enable-background="new 0 0 512 512" height="512" viewBox="0 0 512 512" width="512" xmlns="http://www.w3.org/2000/svg"><g><g id="_x3C_Group_x3E__42_"><path d="m429.5 99.5h-197c-2.76 0-5-2.24-5-5v-20c0-13.81-11.19-25-25-25h-170c-13.81 0-25 11.19-25 25v365c0 1.726.175 3.412.508 5.039 2.331 11.393 27.664 14.764 39.747 14.764l383.032-3.777c13.807 0 23.713-2.219 23.713-16.026l-8.394-309.734c0-1.362 8.285-7.964 8.075-9.266-1.913-11.908-12.233-21-24.681-21z" fill="#ab7b64"/><path d="m454.5 124.5v315c0 13.807-11.193 25-25 25h-397c-11.71 0-21.54-8.05-24.25-18.92 6.302-.151 12.61-.183 17.867-.168 7.186.02 13.02-5.792 13.032-12.978l.351-211.934c0-12.47 5.379-24.073 14.372-32.098.427-.381.678-.919.678-1.491v-28.631c0-15.464 12.536-28 28-28h23.063c.565 0 1.095-.247 1.478-.662 5.14-5.587 12.484-9.108 20.559-9.118h326.53c.21 1.3.32 2.64.32 4z" fill="#9a6a53"/><path d="m50.489 107.638 135.532-1.319c5.523 0 10-4.477 10-10l1.644-2.819v-5c0-5.523-4.477-10-10-10h-134.995l-4.01 1.777c-5.523 0-10 4.477-10 10l1.83 7.362c-.001 5.522 4.477 9.999 9.999 9.999z" fill="#f5fcff"/><path d="m197.67 93.5v5c0 5.52-4.48 10-10 10h-140c-5.53 0-10-4.48-10-10v-10c0-5.52 4.47-10 10-10h5v5c0 5.52 4.47 10 10 10z" fill="#e6f7fe"/><path d="m449.936 157.723s-307.756-9.443-309.026-9.443h-43.02c-.001.001-.001.001-.002.002l-15.334-.006c-5.523 0-10 4.477-10 10l-.004 17.224v29h5.386 382.979v-46.223c0-5.523-5.456-.554-10.979-.554z" fill="#f5fcff"/><path d="m480.32 201.167-362.655-.358 10.824-29.421c0-5.523-6.309-31.364-.786-31.364l16.275-1.524h335.872c5.523 0 10 4.477 10 10v27z" fill="#f5fcff"/><path d="m489.85 175.5v25.68l-372.18-.37v-52.31c0-5.52 4.48-10 10-10h20c-5.53 0-10 4.48-10 10v23c0 2.21 1.79 4 4 4z" fill="#e6f7fe"/><path d="m504.5 220.5v219c0 13.81-11.19 25-25 25h-447c6.9 0 13.16-2.8 17.68-7.32s7.32-10.78 7.32-17.68v-219c0-13.81 11.19-25 25-25h397c13.81 0 25 11.19 25 25z" fill="#ab7b64"/></g><g><g><path d="m504.5 308.894c-4.143 0-7.5 3.358-7.5 7.5v132.106c0 4.136-3.364 7.5-7.5 7.5h-429.636c3.245-5.056 5.136-11.059 5.136-17.5v-17.521c0-4.142-3.358-7.5-7.5-7.5s-7.5 3.358-7.5 7.5v17.521c0 9.649-7.851 17.5-17.5 17.5s-17.5-7.851-17.5-17.5v-375c0-4.136 3.364-7.5 7.5-7.5h33.096c4.142 0 7.5-3.358 7.5-7.5s-3.358-7.5-7.5-7.5h-33.096c-12.407 0-22.5 10.093-22.5 22.5v375c0 17.92 14.58 32.5 32.5 32.5h457c12.406 0 22.5-10.093 22.5-22.5v-132.106c0-4.143-3.357-7.5-7.5-7.5z"/><path d="m497.351 188.416v-39.916c0-9.649-7.851-17.5-17.5-17.5h-17.851v-17.5c0-12.407-10.094-22.5-22.5-22.5h-204.5v-27.5c0-12.407-10.093-22.5-22.5-22.5h-121.925c-4.142 0-7.5 3.358-7.5 7.5s3.358 7.5 7.5 7.5h121.925c4.135 0 7.5 3.364 7.5 7.5v30c0 6.893 5.607 12.5 12.5 12.5h207c4.136 0 7.5 3.364 7.5 7.5v17.5h-106.341c-4.143 0-7.5 3.358-7.5 7.5s3.357 7.5 7.5 7.5h139.191c1.379 0 2.5 1.122 2.5 2.5v38.5h-357.185v-38.5c0-1.378 1.122-2.5 2.5-2.5h178.101c4.143 0 7.5-3.358 7.5-7.5s-3.357-7.5-7.5-7.5h-178.101c-6.875 0-12.82 3.995-15.68 9.776h-29.432c-9.649 0-17.5 7.851-17.5 17.5v29.996c-8.757 3.081-15.053 11.431-15.053 21.228v177.309c0 4.142 3.358 7.5 7.5 7.5s7.5-3.358 7.5-7.5v-177.309c0-4.136 3.364-7.5 7.5-7.5h417c4.136 0 7.5 3.364 7.5 7.5v71.894c0 4.142 3.357 7.5 7.5 7.5s7.5-3.358 7.5-7.5v-71.894c0-9.646-6.103-17.892-14.649-21.084zm-414.798-32.64h27.612v31.224h-30.112v-28.724c0-1.378 1.122-2.5 2.5-2.5z"/><path d="m30.165 88.5v10c0 9.649 7.851 17.5 17.5 17.5h140c9.649 0 17.5-7.851 17.5-17.5v-10c0-9.649-7.851-17.5-17.5-17.5h-140c-9.649 0-17.5 7.851-17.5 17.5zm160 0v10c0 1.378-1.122 2.5-2.5 2.5h-140c-1.378 0-2.5-1.122-2.5-2.5v-10c0-1.378 1.122-2.5 2.5-2.5h140c1.378 0 2.5 1.122 2.5 2.5z"/></g></g></g></svg>